<svg width="195" height="63" viewBox="0 0 195 63" fill="none" xmlns="http://www.w3.org/2000/svg">
<path d="M20.6353 50.8667L29.2671 37.1333H46.598L53.4765 51.2L40.9335 41.0667L37.2919 63L33.7853 41.0667L20.6353 50.8667Z" fill="url(#paint0_linear_29_3584)"/>
<path d="M31.6273 34.4L34.1224 37.6667H41.6078L44.1704 34.4H76L38.3035 32.8V28.0667H37.2919V32.8L0 34.6L31.6273 34.4Z" fill="#243174"/>
<path d="M41.663 33.8785C41.663 35.993 39.929 37.7072 37.7901 37.7072C35.6511 37.7072 33.9172 35.993 33.9172 33.8785C33.9172 31.7639 35.6511 30.0497 37.7901 30.0497C39.929 30.0497 41.663 31.7639 41.663 33.8785Z" fill="white"/>
<path d="M37.7568 0L35.5602 30.7383L37.8233 32.9503L40.0199 30.7383L37.7568 0Z" fill="url(#paint1_linear_29_3584)"/>
<path d="M38.236 33V27.5333L61.3665 6.53333L46.126 31.1333L66.6264 33.2V34.2667L38.236 33Z" fill="url(#paint2_linear_29_3584)"/>
<path d="M43.9006 34L41.4729 37.6667L66.8962 35.1333L66.6264 34.5333L43.9006 34Z" fill="url(#paint3_linear_29_3584)"/>
<path d="M37.4268 33V27.5333L14.2964 6.53333L29.5368 31.1333L9.03638 33.2V34.2667L37.4268 33Z" fill="url(#paint4_linear_29_3584)"/>
<path d="M31.7622 34L34.1899 37.6667L8.76664 35.1333L9.03638 34.5333L31.7622 34Z" fill="url(#paint5_linear_29_3584)"/>
<path d="M84.0455 45V42.9545L96.5909 24.2273H83.9091V21.7273H99.9545V23.7727L87.4091 42.5H100.091V45H84.0455ZM115.613 45.3636C113.931 45.3636 112.48 44.9924 111.26 44.25C110.048 43.5 109.113 42.4545 108.454 41.1136C107.802 39.7652 107.476 38.197 107.476 36.4091C107.476 34.6212 107.802 33.0455 108.454 31.6818C109.113 30.3106 110.029 29.2424 111.204 28.4773C112.385 27.7045 113.764 27.3182 115.34 27.3182C116.249 27.3182 117.147 27.4697 118.033 27.7727C118.92 28.0758 119.726 28.5682 120.454 29.25C121.181 29.9242 121.76 30.8182 122.192 31.9318C122.624 33.0455 122.84 34.4167 122.84 36.0455V37.1818H109.385V34.8636H120.113C120.113 33.8788 119.916 33 119.522 32.2273C119.135 31.4545 118.582 30.8447 117.863 30.3977C117.151 29.9508 116.31 29.7273 115.34 29.7273C114.272 29.7273 113.348 29.9924 112.567 30.5227C111.795 31.0455 111.2 31.7273 110.783 32.5682C110.367 33.4091 110.158 34.3106 110.158 35.2727V36.8182C110.158 38.1364 110.385 39.2538 110.84 40.1705C111.302 41.0795 111.942 41.7727 112.76 42.25C113.579 42.7197 114.529 42.9545 115.613 42.9545C116.317 42.9545 116.954 42.8561 117.522 42.6591C118.098 42.4545 118.594 42.1515 119.01 41.75C119.427 41.3409 119.749 40.8333 119.976 40.2273L122.567 40.9545C122.295 41.8333 121.836 42.6061 121.192 43.2727C120.548 43.9318 119.753 44.447 118.806 44.8182C117.859 45.1818 116.795 45.3636 115.613 45.3636ZM137.35 45.3636C135.896 45.3636 134.612 44.9962 133.498 44.2614C132.385 43.5189 131.513 42.4735 130.885 41.125C130.256 39.7689 129.941 38.1667 129.941 36.3182C129.941 34.4848 130.256 32.8939 130.885 31.5455C131.513 30.197 132.388 29.1553 133.51 28.4205C134.631 27.6856 135.926 27.3182 137.396 27.3182C138.532 27.3182 139.43 27.5076 140.089 27.8864C140.756 28.2576 141.263 28.6818 141.612 29.1591C141.968 29.6288 142.244 30.0152 142.441 30.3182H142.669V21.7273H145.35V45H142.76V42.3182H142.441C142.244 42.6364 141.964 43.0379 141.6 43.5227C141.237 44 140.718 44.428 140.044 44.8068C139.369 45.178 138.472 45.3636 137.35 45.3636ZM137.714 42.9545C138.79 42.9545 139.699 42.6742 140.441 42.1136C141.184 41.5455 141.748 40.7614 142.135 39.7614C142.521 38.7538 142.714 37.5909 142.714 36.2727C142.714 34.9697 142.525 33.8295 142.146 32.8523C141.767 31.8674 141.207 31.1023 140.464 30.5568C139.722 30.0038 138.805 29.7273 137.714 29.7273C136.578 29.7273 135.631 30.0189 134.873 30.6023C134.123 31.178 133.559 31.9621 133.18 32.9545C132.809 33.9394 132.623 35.0455 132.623 36.2727C132.623 37.5152 132.813 38.6439 133.191 39.6591C133.578 40.6667 134.146 41.4697 134.896 42.0682C135.653 42.6591 136.593 42.9545 137.714 42.9545ZM156.202 21.7273L162.202 31.4091H162.384L168.384 21.7273H171.702L164.384 33.3636L171.702 45H168.384L162.384 35.5H162.202L156.202 45H152.884L160.384 33.3636L152.884 21.7273H156.202ZM185.258 45.3636C183.576 45.3636 182.125 44.9924 180.905 44.25C179.693 43.5 178.758 42.4545 178.099 41.1136C177.447 39.7652 177.121 38.197 177.121 36.4091C177.121 34.6212 177.447 33.0455 178.099 31.6818C178.758 30.3106 179.674 29.2424 180.849 28.4773C182.03 27.7045 183.409 27.3182 184.985 27.3182C185.894 27.3182 186.792 27.4697 187.678 27.7727C188.565 28.0758 189.371 28.5682 190.099 29.25C190.826 29.9242 191.405 30.8182 191.837 31.9318C192.269 33.0455 192.485 34.4167 192.485 36.0455V37.1818H179.03V34.8636H189.758C189.758 33.8788 189.561 33 189.167 32.2273C188.78 31.4545 188.227 30.8447 187.508 30.3977C186.796 29.9508 185.955 29.7273 184.985 29.7273C183.917 29.7273 182.993 29.9924 182.212 30.5227C181.44 31.0455 180.845 31.7273 180.428 32.5682C180.012 33.4091 179.803 34.3106 179.803 35.2727V36.8182C179.803 38.1364 180.03 39.2538 180.485 40.1705C180.947 41.0795 181.587 41.7727 182.405 42.25C183.224 42.7197 184.174 42.9545 185.258 42.9545C185.962 42.9545 186.599 42.8561 187.167 42.6591C187.743 42.4545 188.239 42.1515 188.655 41.75C189.072 41.3409 189.394 40.8333 189.621 40.2273L192.212 40.9545C191.94 41.8333 191.481 42.6061 190.837 43.2727C190.193 43.9318 189.398 44.447 188.451 44.8182C187.504 45.1818 186.44 45.3636 185.258 45.3636Z" fill="white"/>
<defs>
<linearGradient id="paint0_linear_29_3584" x1="37.0559" y1="37.1333" x2="37.0559" y2="63" gradientUnits="userSpaceOnUse">
<stop stop-color="#1C1A81"/>
<stop offset="1" stop-color="#5569D4"/>
</linearGradient>
<linearGradient id="paint1_linear_29_3584" x1="37.79" y1="0" x2="37.79" y2="32.9503" gradientUnits="userSpaceOnUse">
<stop stop-color="#757AF0"/>
<stop offset="1" stop-color="#111A4B"/>
</linearGradient>
<linearGradient id="paint2_linear_29_3584" x1="52.5661" y1="6.53333" x2="52.5661" y2="37.6667" gradientUnits="userSpaceOnUse">
<stop stop-color="#0935A5"/>
<stop offset="1" stop-color="#6176E4"/>
</linearGradient>
<linearGradient id="paint3_linear_29_3584" x1="52.5661" y1="6.53333" x2="52.5661" y2="37.6667" gradientUnits="userSpaceOnUse">
<stop stop-color="#0935A5"/>
<stop offset="1" stop-color="#6176E4"/>
</linearGradient>
<linearGradient id="paint4_linear_29_3584" x1="23.0967" y1="6.53333" x2="23.0967" y2="37.6667" gradientUnits="userSpaceOnUse">
<stop stop-color="#0935A5"/>
<stop offset="1" stop-color="#6176E4"/>
</linearGradient>
<linearGradient id="paint5_linear_29_3584" x1="23.0967" y1="6.53333" x2="23.0967" y2="37.6667" gradientUnits="userSpaceOnUse">
<stop stop-color="#0935A5"/>
<stop offset="1" stop-color="#6176E4"/>
</linearGradient>
</defs>
</svg>
